<svg width="206" height="206" viewBox="0 0 206 206" fill="none" xmlns="http://www.w3.org/2000/svg">
<path d="M100 284C100 182.38 182.38 100 284 100H512V924H284C182.38 924 100 841.62 100 740V284Z" fill="#FF7A00"/>
<path d="M512 100H740C841.62 100 924 182.38 924 284V740C924 841.62 841.62 924 740 924H512V100Z" fill="#222222"/>
<path d="M272.311 384.193C272.311 333.383 313.501 292.193 364.311 292.193H513.105V731.807H364.311C313.501 731.807 272.311 690.617 272.311 639.807V384.193Z" fill="#222222"/>
<path d="M513.104 731.807V292.193H659.689C710.499 292.193 751.689 333.383 751.689 384.193V639.807C751.689 690.617 710.499 731.807 659.689 731.807H513.104Z" fill="#FF7A00"/>
</svg>
